<svg xmlns="http://www.w3.org/2000/svg" xmlns:xlink="http://www.w3.org/1999/xlink" width="800" height="801"><symbol id="apostrophes" viewBox="0 0 32 30"><title>apostrophes</title><path d="M7.636 29.454c-2.545 0-4.454-.787-5.727-2.363C.636 25.454 0 23.333 0 20.727c0-3.09.788-6.394 2.364-9.909C3.939 7.242 6.273 3.636 9.364 0l3.363 2.545c-1.273 1.576-2.575 3.788-3.909 6.637-1.273 2.788-1.94 5.364-2 7.727a6.61 6.61 0 0 1 1.91-.273c1.696 0 3.12.485 4.272 1.455 1.152.909 1.727 2.303 1.727 4.182 0 2-.697 3.697-2.09 5.09-1.334 1.395-3 2.091-5 2.091zm17.273 0c-2.545 0-4.454-.787-5.727-2.363-1.273-1.637-1.91-3.758-1.91-6.364 0-3.09.789-6.394 2.364-9.909 1.576-3.576 3.91-7.182 7-10.818L30 2.545c-1.273 1.576-2.576 3.788-3.91 6.637-1.272 2.788-1.939 5.364-2 7.727a6.61 6.61 0 0 1 1.91-.273c1.697 0 3.121.485 4.273 1.455C31.424 19 32 20.394 32 22.273c0 2-.697 3.697-2.09 5.09-1.334 1.395-3 2.091-5 2.091z" fill="var(--fill-color)" stroke="var(--stroke-color)"/></symbol><use xlink:href="#apostrophes" width="32" height="30"/><symbol id="arrow" viewBox="0 0 10 18"><title>arrow</title><path fill-rule="evenodd" clip-rule="evenodd" d="M9.707.293a1 1 0 0 1 0 1.414L2.414 9l7.293 7.293a1 1 0 0 1-1.414 1.414l-8-8a1 1 0 0 1 0-1.414l8-8a1 1 0 0 1 1.414 0z" fill="var(--fill-color)" stroke="var(--stroke-color)"/></symbol><use xlink:href="#arrow" y="30" width="10" height="18"/><symbol id="burger" viewBox="0 0 800 600"><title>burger</title><path d="M300 220h240c200 0 100 320-20 200L300 200m0 120h240"/><path d="M300 428h240c200 0 100-320-20-200L300 448"/></symbol><use xlink:href="#burger" y="48" width="800" height="600"/><symbol id="check" viewBox="0 0 10 8"><title>check</title><path fill-rule="evenodd" clip-rule="evenodd" d="M9.64.232a1 1 0 0 1 .128 1.408l-5 6a1 1 0 0 1-1.475.067l-3-3a1 1 0 1 1 1.414-1.414l2.226 2.226L8.232.359A1 1 0 0 1 9.64.233z" fill="#BE8D7E"/></symbol><use xlink:href="#check" y="648" width="10" height="8"/><symbol id="dropdown" viewBox="0 0 14 9"><title>dropdown</title><path fill-rule="evenodd" clip-rule="evenodd" d="M.342.377a1.092 1.092 0 0 1 1.65 0L7 5.896l5.008-5.52a1.092 1.092 0 0 1 1.65 0 1.38 1.38 0 0 1 0 1.819L7.825 8.623a1.092 1.092 0 0 1-1.65 0L.342 2.195a1.38 1.38 0 0 1 0-1.818z" fill="var(--fill-color)" stroke="var(--stroke-color)"/></symbol><use xlink:href="#dropdown" y="656" width="14" height="9"/><symbol id="earth" viewBox="0 0 18 18"><title>earth</title><path d="M15.364 2.64A8.941 8.941 0 0 0 9.122.006a1.355 1.355 0 0 0-.244 0A8.941 8.941 0 0 0 2.636 2.64 8.934 8.934 0 0 0 0 9a8.93 8.93 0 0 0 2.636 6.36 8.941 8.941 0 0 0 6.242 2.634 1.365 1.365 0 0 0 .244 0 8.941 8.941 0 0 0 6.242-2.633A8.934 8.934 0 0 0 18 9a8.934 8.934 0 0 0-2.636-6.36zm-11.971.756A7.888 7.888 0 0 1 6.769 1.39a8.59 8.59 0 0 0-.819 1.122c-.328.532-.613 1.11-.85 1.72H2.663c.221-.293.464-.573.729-.837zm-1.41 1.906h2.756a13.412 13.412 0 0 0-.498 3.163H1.088a7.86 7.86 0 0 1 .894-3.163zm0 7.396a7.86 7.86 0 0 1-.895-3.163h3.153c.042 1.092.211 2.16.498 3.163H1.982zm1.41 1.906a8.026 8.026 0 0 1-.73-.837H5.1c.238.61.523 1.188.851 1.72a8.6 8.6 0 0 0 .82 1.122 7.888 7.888 0 0 1-3.377-2.005zm5.072 2.107c-.446-.292-1.044-.877-1.604-1.785a9.386 9.386 0 0 1-.605-1.159h2.209v2.944h0zm0-4.013h-2.61a12.231 12.231 0 0 1-.544-3.163h3.154v3.163zm0-4.233H5.311c.046-1.101.232-2.172.544-3.163h2.61v3.163zm0-4.232H6.256c.178-.407.38-.795.605-1.159.56-.908 1.158-1.493 1.604-1.785v2.944h0zm7.553 1.069a7.86 7.86 0 0 1 .894 3.163h-3.153a13.41 13.41 0 0 0-.498-3.163h2.757zm-1.41-1.906c.264.264.507.544.728.837h-2.435a10.639 10.639 0 0 0-.851-1.72 8.58 8.58 0 0 0-.82-1.122 7.888 7.888 0 0 1 3.377 2.005zM9.534 1.289c.446.292 1.044.877 1.604 1.785.225.364.427.752.605 1.159H9.535V1.289h0zm0 4.013h2.61c.313.99.498 2.062.544 3.163H9.535V5.302zm3.154 4.233a12.229 12.229 0 0 1-.544 3.163h-2.61V9.535h3.154zM9.535 16.71v-2.944h2.209a9.38 9.38 0 0 1-.605 1.159c-.56.908-1.158 1.493-1.604 1.785zm5.072-2.107a7.888 7.888 0 0 1-3.376 2.005c.285-.328.561-.704.819-1.122.328-.532.613-1.11.85-1.72h2.436a8.041 8.041 0 0 1-.729.837zm1.41-1.906h-2.756c.287-1.003.456-2.071.498-3.163h3.153a7.86 7.86 0 0 1-.894 3.163z" fill="var(--fill-color)" stroke="var(--stroke-color)"/></symbol><use xlink:href="#earth" y="665" width="18" height="18"/><symbol id="fb" viewBox="0 0 18 18"><title>fb</title><path d="M15.575 0H2.425A2.425 2.425 0 0 0 0 2.425v13.15A2.425 2.425 0 0 0 2.425 18H8.91l.012-6.432H7.25a.394.394 0 0 1-.394-.393L6.848 9.1c0-.218.176-.395.394-.395h1.669V6.702c0-2.324 1.42-3.59 3.494-3.59h1.702c.217 0 .394.176.394.394v1.748a.394.394 0 0 1-.394.394l-1.045.001c-1.128 0-1.346.536-1.346 1.323v1.734h2.478c.236 0 .42.206.392.44l-.246 2.074a.394.394 0 0 1-.392.348h-2.221L11.716 18h3.859A2.426 2.426 0 0 0 18 15.575V2.425A2.425 2.425 0 0 0 15.575 0z" fill="var(--fill-color)" stroke="var(--stroke-color)"/></symbol><use xlink:href="#fb" y="683" width="18" height="18"/><symbol id="grid" viewBox="0 0 24 24"><title>grid</title><path d="M.75 0h4.5A.75.75 0 0 1 6 .75v4.5a.75.75 0 0 1-.75.75H.75A.75.75 0 0 1 0 5.25V.75A.75.75 0 0 1 .75 0zm9 0h4.5a.75.75 0 0 1 .75.75v4.5a.75.75 0 0 1-.75.75h-4.5A.75.75 0 0 1 9 5.25V.75A.75.75 0 0 1 9.75 0zm9 0h4.5a.75.75 0 0 1 .75.75v4.5a.75.75 0 0 1-.75.75h-4.5a.75.75 0 0 1-.75-.75V.75a.75.75 0 0 1 .75-.75zm-18 9h4.5a.75.75 0 0 1 .75.75v4.5a.75.75 0 0 1-.75.75H.75a.75.75 0 0 1-.75-.75v-4.5A.75.75 0 0 1 .75 9zm9 0h4.5a.75.75 0 0 1 .75.75v4.5a.75.75 0 0 1-.75.75h-4.5a.75.75 0 0 1-.75-.75v-4.5A.75.75 0 0 1 9.75 9zm9 0h4.5a.75.75 0 0 1 .75.75v4.5a.75.75 0 0 1-.75.75h-4.5a.75.75 0 0 1-.75-.75v-4.5a.75.75 0 0 1 .75-.75zm-18 9h4.5a.75.75 0 0 1 .75.75v4.5a.75.75 0 0 1-.75.75H.75a.75.75 0 0 1-.75-.75v-4.5A.75.75 0 0 1 .75 18zm9 0h4.5a.75.75 0 0 1 .75.75v4.5a.75.75 0 0 1-.75.75h-4.5a.75.75 0 0 1-.75-.75v-4.5a.75.75 0 0 1 .75-.75zm9 0h4.5a.75.75 0 0 1 .75.75v4.5a.75.75 0 0 1-.75.75h-4.5a.75.75 0 0 1-.75-.75v-4.5a.75.75 0 0 1 .75-.75z" fill="var(--fill-color)" stroke="var(--stroke-color)"/></symbol><use xlink:href="#grid" y="701" width="24" height="24"/><symbol id="line" viewBox="0 0 2 18"><title>line</title><path fill-rule="evenodd" clip-rule="evenodd" d="M1 0a1 1 0 0 1 1 1v16a1 1 0 1 1-2 0V1a1 1 0 0 1 1-1z" fill="#D6D6D6"/></symbol><use xlink:href="#line" y="725" width="2" height="18"/><symbol id="menu-carret" viewBox="0 0 18 10"><title>menu-carret</title><path d="M.293.293a1 1 0 0 1 1.414 0L9 7.586 16.293.293a1 1 0 1 1 1.414 1.414l-8 8a1 1 0 0 1-1.414 0l-8-8a1 1 0 0 1 0-1.414z" fill="var(--fill-color)" stroke="var(--stroke-color)"/></symbol><use xlink:href="#menu-carret" y="743" width="18" height="10"/><symbol id="search-arrow" viewBox="0 0 20 12"><title>search-arrow</title><path d="M1 5.25a.75.75 0 0 0 0 1.5v-1.5zm18.03 1.28a.75.75 0 0 0 0-1.06L14.257.697a.75.75 0 0 0-1.06 1.06L17.439 6l-4.242 4.243a.75.75 0 0 0 1.06 1.06L19.03 6.53zM1 6.75h17.5v-1.5H1v1.5z" fill="var(--fill-color)" stroke="var(--stroke-color)"/></symbol><use xlink:href="#search-arrow" y="753" width="20" height="12"/><symbol id="search" viewBox="0 0 18 18"><title>search</title><path d="M12.758 11.618l-.29.344.313.324 4.283 4.456a.449.449 0 0 1-.012.633h0a.443.443 0 0 1-.31.125.441.441 0 0 1-.323-.137s0 0 0 0l-4.317-4.49-.297-.309-.35.247a6.69 6.69 0 0 1-3.877 1.224A6.776 6.776 0 0 1 .811 7.267 6.776 6.776 0 0 1 7.578.5a6.776 6.776 0 0 1 6.768 6.767 6.742 6.742 0 0 1-1.588 4.35zm.692-4.35a5.878 5.878 0 0 0-5.872-5.872 5.878 5.878 0 0 0-5.871 5.871 5.878 5.878 0 0 0 5.871 5.872 5.878 5.878 0 0 0 5.872-5.872z" stroke="var(--stroke-color)" fill="var(--fill-color)"/></symbol><use xlink:href="#search" y="765" width="18" height="18"/><symbol id="separator" viewBox="0 0 69 1"><title>separator</title><path fill="#D6D6D6" d="M0 0h69v1H0z"/></symbol><use xlink:href="#separator" y="783" width="69" height="1"/><symbol id="twitter" viewBox="0 0 18 17"><title>twitter</title><path d="M17.714 2.03c-.4.19-.815.34-1.241.448A4.182 4.182 0 0 0 17.494.739c.057-.19-.136-.354-.297-.252a6.912 6.912 0 0 1-1.897.837.485.485 0 0 1-.45-.12 3.74 3.74 0 0 0-3.798-.832c-1.258.417-2.23 1.526-2.534 2.895a4.72 4.72 0 0 0-.092 1.527.155.155 0 0 1-.035.116.14.14 0 0 1-.12.051C5.515 4.688 3.03 3.27 1.275.968a.196.196 0 0 0-.332.028A4.366 4.366 0 0 0 .418 3.08a4.29 4.29 0 0 0 1.157 2.956A3.348 3.348 0 0 1 .69 5.67c-.134-.08-.3.022-.301.187-.02 1.67.896 3.156 2.266 3.825h-.083c-.217 0-.437-.021-.653-.066-.152-.03-.279.123-.232.28.445 1.484 1.641 2.578 3.072 2.826a6.84 6.84 0 0 1-4.01 1.302h-.45a.301.301 0 0 0-.29.24c-.034.14.03.289.148.362a10.132 10.132 0 0 0 5.352 1.542c1.645 0 3.183-.349 4.573-1.037a10.18 10.18 0 0 0 3.347-2.68 11.936 11.936 0 0 0 2.049-3.667c.456-1.3.696-2.689.696-4.014v-.063c0-.213.09-.413.248-.55a8.031 8.031 0 0 0 1.543-1.809c.113-.18-.065-.407-.251-.319z" fill="var(--fill-color)" stroke="var(--stroke-color)"/></symbol><use xlink:href="#twitter" y="784" width="18" height="17"/></svg>