<svg width="32" height="32" viewBox="0 0 32 32" fill="none" xmlns="http://www.w3.org/2000/svg">
<g clip-path="url(#clip0)">
<path opacity="0.7" d="M16.0009 31.9999C24.8374 31.9999 32.0008 24.8365 32.0008 15.9999C32.0008 7.16342 24.8374 0 16.0009 0C7.16439 0 0.000976562 7.16342 0.000976562 15.9999C0.000976562 24.8365 7.16439 31.9999 16.0009 31.9999Z" fill="#F3F6F8"/>
<path d="M22.6901 6.84161H9.30985C7.94679 6.84161 6.84174 7.94661 6.84174 9.30973V22.69C6.84174 24.0532 7.94673 25.1581 9.30985 25.1581H15.9088L15.9203 18.613H14.2196C13.9986 18.613 13.8193 18.4343 13.8185 18.2133L13.8102 16.1033C13.8093 15.8813 13.9894 15.7006 14.2115 15.7006H15.9091V13.662C15.9091 11.2962 17.3539 10.008 19.4643 10.008H21.1962C21.4176 10.008 21.5974 10.1877 21.5974 10.4093V12.1882C21.5974 12.4098 21.4178 12.5895 21.1964 12.5895L20.1336 12.5901C18.9859 12.5901 18.7635 13.1354 18.7635 13.9359V15.7008H21.2854C21.5259 15.7008 21.7123 15.9107 21.6839 16.1491L21.4338 18.2591C21.41 18.4611 21.2387 18.6131 21.0354 18.6131H18.7749L18.7634 25.1585H22.69C24.0531 25.1585 25.1582 24.0534 25.1582 22.6903V9.30973C25.1582 7.94667 24.0532 6.84161 22.6901 6.84161Z" fill="#202124"/>
<path d="M15.9088 25.158L15.9203 18.6129H15.8923V25.158H15.9088Z" fill="#202124"/>
</g>
<defs>
<clipPath id="clip0">
<rect width="32" height="32" fill="white"/>
</clipPath>
</defs>
</svg>
