<svg width="32" height="32" viewBox="0 0 32 32" fill="none" xmlns="http://www.w3.org/2000/svg">
<path d="M16 32C24.8366 32 32 24.8366 32 16C32 7.16344 24.8366 0 16 0C7.16344 0 0 7.16344 0 16C0 24.8366 7.16344 32 16 32Z" fill="#8C959B"/>
<path d="M24.867 10.1544C24.46 10.335 24.0376 10.4774 23.604 10.5804C24.0818 10.1266 24.4409 9.55875 24.6435 8.92513C24.7013 8.74431 24.5048 8.58775 24.3415 8.68463C23.7383 9.04244 23.0887 9.31063 22.4106 9.48225C22.3713 9.49225 22.3308 9.49725 22.29 9.49725C22.1663 9.49725 22.0465 9.45144 21.9518 9.36819C21.2305 8.73231 20.3025 8.38213 19.339 8.38213C18.922 8.38213 18.5012 8.44713 18.088 8.57531C16.8076 8.97238 15.8196 10.0287 15.5095 11.3317C15.3932 11.8204 15.3618 12.3098 15.416 12.7857C15.422 12.8405 15.3963 12.8786 15.3804 12.8965C15.3523 12.9279 15.3126 12.9459 15.2713 12.9459C15.2668 12.9459 15.262 12.9457 15.2573 12.9453C12.4545 12.6848 9.92689 11.3346 8.14052 9.143C8.04958 9.03119 7.8747 9.04494 7.80208 9.16938C7.45233 9.76975 7.26745 10.4562 7.26745 11.1548C7.26745 12.2252 7.6977 13.2341 8.44477 13.9697C8.13058 13.8951 7.82645 13.7778 7.54389 13.6208C7.40714 13.5449 7.23908 13.6427 7.23714 13.799C7.21777 15.3893 8.14889 16.8044 9.5437 17.4416C9.51558 17.4422 9.48745 17.4425 9.45933 17.4425C9.23827 17.4425 9.01427 17.4214 8.79402 17.3791C8.64008 17.3499 8.51077 17.4957 8.55852 17.6449C9.01139 19.0585 10.2283 20.1004 11.6848 20.3367C10.4761 21.1482 9.06839 21.5761 7.60345 21.5761L7.14683 21.5759C7.00589 21.5759 6.88683 21.6677 6.8512 21.8041C6.81589 21.9381 6.88083 22.0799 7.00095 22.1497C8.6517 23.1104 10.5348 23.6181 12.4471 23.6181C14.1211 23.6181 15.687 23.2861 17.1012 22.6307C18.3978 22.0302 19.5435 21.1717 20.5066 20.0791C21.4039 19.0612 22.1054 17.8862 22.5919 16.5866C23.0555 15.3481 23.3006 14.0262 23.3006 12.7645V12.7042C23.3006 12.5017 23.3922 12.3111 23.5521 12.1811C24.1588 11.6885 24.6871 11.1088 25.1223 10.4579C25.2373 10.2861 25.056 10.0706 24.867 10.1544Z" fill="white"/>
</svg>
