<svg width="32" height="32" viewBox="0 0 32 32" fill="none" xmlns="http://www.w3.org/2000/svg">
<g opacity="0.7">
<path d="M16 32C24.8366 32 32 24.8366 32 16C32 7.16344 24.8366 0 16 0C7.16344 0 0 7.16344 0 16C0 24.8366 7.16344 32 16 32Z" fill="#F3F6F8"/>
<path d="M21.3531 9.52081H10.6469C8.54644 9.52081 6.84369 11.2236 6.84369 13.3241V18.6761C6.84369 20.7766 8.5465 22.4793 10.6469 22.4793H21.3531C23.4536 22.4793 25.1563 20.7765 25.1563 18.6761V13.3241C25.1563 11.2236 23.4535 9.52081 21.3531 9.52081ZM18.7809 16.2604L13.7734 18.6487C13.6399 18.7124 13.4857 18.6152 13.4857 18.4674V13.5415C13.4857 13.3915 13.6439 13.2943 13.7776 13.3621L18.7851 15.8997C18.9342 15.9751 18.9315 16.1887 18.7809 16.2604Z" fill="#202124"/>
</g>
</svg>
